<!DOCTYPE svg PUBLIC "-//W3C//DTD SVG 1.1//EN" "http://www.w3.org/Graphics/SVG/1.1/DTD/svg11.dtd">
<!-- Uploaded to: SVG Repo, www.svgrepo.com, Transformed by: SVG Repo Mixer Tools -->
<svg fill="#ffffff" width="800px" height="800px" viewBox="-2 -1.5 24 24" xmlns="http://www.w3.org/2000/svg" preserveAspectRatio="xMinYMin" class="jam jam-coin-f" stroke="#ffffff">
<g id="SVGRepo_bgCarrier" stroke-width="0"/>
<g id="SVGRepo_tracerCarrier" stroke-linecap="round" stroke-linejoin="round" stroke="#CCCCCC" stroke-width="0.624"/>
<g id="SVGRepo_iconCarrier">
<path d="M9 13.858h-.051A.949.949 0 0 1 8 12.909a1 1 0 1 0-2 0 2.949 2.949 0 0 0 2.949 2.949H9v1a1 1 0 0 0 2 0v-1a3 3 0 0 0 0-6v-2h.022c.54 0 .978.438.978.978a1 1 0 0 0 2 0 2.978 2.978 0 0 0-2.978-2.978H11v-1a1 1 0 0 0-2 0v1a3 3 0 1 0 0 6v2zm2 0v-2a1 1 0 0 1 0 2zm-2-6v2a1 1 0 1 1 0-2zm1 13c-5.523 0-10-4.477-10-10s4.477-10 10-10 10 4.477 10 10-4.477 10-10 10z"/>
</g>
</svg>